<?xml version="1.0" encoding="utf-8"?>
<!-- Generator: Adobe Illustrator 21.0.0, SVG Export Plug-In . SVG Version: 6.00 Build 0)  -->
<svg version="1.1" id="Layer_1" xmlns="http://www.w3.org/2000/svg" xmlns:xlink="http://www.w3.org/1999/xlink" x="0px" y="0px"
	 viewBox="0 0 612 792" style="enable-background:new 0 0 612 792;" xml:space="preserve">
<style type="text/css">
	.st0{fill:#E6E4E5;}
</style>
<g>
	<path class="st0" d="M206,568.7h-56.8c-6.8,0-11-3.8-12.9-6.1c-3.2-4-4.4-9.1-3.4-14c16.7-80.1,87.3-138.7,169-140.6h4.2h4.2
		c19.9,0.4,39.4,4.2,58,11.2c8.3,3,17.6-1.1,20.6-9.5c3-8.3-1.1-17.6-9.5-20.7c-2.7-0.9-5.3-1.9-8-2.8
		c26.5-19.9,43.8-51.7,43.8-87.3c0-60.2-49.1-109.1-109.1-109.1C246,189.8,197,238.9,197,298.9c0,35.8,17.2,67.4,44,87.5
		c-24.4,8-47.4,20.5-67.3,36.9c-36.8,30.1-62.3,72.4-71.8,118.6c-3,14.6,0.6,29.4,9.9,40.9c9.3,11.4,23.1,18,37.7,18h56.8
		c8.9,0,16.1-7.2,16.1-16.1C222.3,575.9,214.9,568.7,206,568.7L206,568.7z M228.9,298.9c0-42.4,34.7-77.1,77.1-77.1
		s77.1,34.7,77.1,77.1c0,41.3-32.6,75-73.3,76.9c-1.3,0-2.5,0-3.8,0s-2.5,0-3.8,0C261.5,373.9,228.9,340.2,228.9,298.9L228.9,298.9z
		"/>
	<path class="st0" d="M393.6,584.8c0,8.9,7.2,16.1,16.1,16.1h56.8c14.6,0,28.4-6.6,37.7-18c9.3-11.6,12.9-26.3,9.9-40.9
		c-9.5-46.2-35-88.5-71.8-118.6c-19.9-16.5-42.8-29-67.3-36.9c26.7-20.1,44-51.7,44-87.5c0-60.1-49.1-109.1-109.1-109.1
		c-60.1,0-109.1,48.9-109.1,109.1c0,35.6,17.2,67.4,43.8,87.3c-2.7,0.9-5.3,1.9-8,2.8c-8.3,3-12.5,12.3-9.5,20.7
		c3,8.3,12.3,12.5,20.6,9.5c18.6-7,38.1-10.8,58-11.2h4.2h4.2c81.6,1.9,152.3,60.4,169,140.6c0.9,4.9-0.2,10-3.4,14
		c-1.9,2.3-6.1,6.1-12.9,6.1H410C401,568.7,393.6,575.9,393.6,584.8L393.6,584.8z M313.6,375.8c-1.3,0-2.5,0-3.8,0s-2.5,0-3.8,0
		c-40.7-1.9-73.3-35.6-73.3-76.9c0-42.4,34.7-77.1,77.1-77.1s77.1,34.7,77.1,77.1C386.9,340.2,354.4,373.9,313.6,375.8L313.6,375.8z
		"/>
	<path class="st0" d="M306,107.8c-167.3,0-303.5,136-303.5,303.5c0,167.3,136,303.5,303.5,303.5c167.3,0,303.5-136,303.5-303.5
		S473.3,107.8,306,107.8L306,107.8z M305.6,684.8c-151.7,0-274.7-122.9-274.7-274.7c0-151.7,123-274.7,274.7-274.7
		s274.7,122.9,274.7,274.7S457.4,684.8,305.6,684.8L305.6,684.8z"/>
</g>
</svg>
